<?xml version="1.0" standalone="no"?>
<!DOCTYPE svg PUBLIC "-//W3C//DTD SVG 20010904//EN"
 "http://www.w3.org/TR/2001/REC-SVG-20010904/DTD/svg10.dtd">
<svg version="1.0" xmlns="http://www.w3.org/2000/svg"
 width="311.000000pt" height="95.000000pt" viewBox="0 0 311.000000 95.000000"
 preserveAspectRatio="xMidYMid meet">

<g transform="translate(0.000000,95.000000) scale(0.100000,-0.100000)"
fill="#000000" stroke="none">
<path d="M237 943 c-10 -17 -57 -192 -72 -265 -22 -110 -20 -315 5 -458 21
-122 50 -212 70 -218 9 -3 11 1 7 12 -24 62 -58 224 -68 326 -9 95 -9 150 0
253 11 119 22 175 65 315 7 23 10 42 5 42 -4 0 -10 -3 -12 -7z"/>
<path d="M2854 934 c24 -62 65 -240 71 -304 15 -175 3 -436 -23 -487 -5 -10
-14 -39 -20 -64 -7 -26 -14 -54 -18 -63 -4 -10 -1 -16 9 -16 27 0 87 288 87
423 0 156 -68 515 -100 525 -9 3 -11 -1 -6 -14z"/>
<path d="M867 782 c-49 -30 -78 -107 -84 -221 -6 -96 -7 -101 -28 -101 -12 0
-42 16 -66 35 -24 19 -50 35 -57 35 -22 0 -61 -50 -82 -108 -29 -76 -79 -158
-106 -173 -38 -20 -70 -4 -96 48 -20 43 -23 62 -23 173 0 105 3 131 20 165 32
63 89 61 130 -6 14 -22 30 -37 35 -34 15 10 12 54 -7 85 -34 58 -107 66 -169
21 -98 -72 -125 -213 -67 -341 38 -82 89 -130 140 -130 41 0 95 32 114 67 16
29 23 29 43 -2 13 -20 25 -25 56 -25 51 0 76 31 85 108 l6 58 34 -4 c28 -3 35
-9 40 -32 3 -16 18 -52 33 -82 23 -45 33 -54 65 -62 34 -9 40 -7 67 19 16 16
32 37 36 47 4 15 9 17 20 7 8 -6 14 -17 14 -23 0 -22 46 -56 74 -56 28 0 87
48 98 80 4 13 7 13 21 2 22 -19 53 -7 74 29 23 38 33 37 33 -3 0 -49 18 -103
40 -123 34 -31 67 -11 105 64 18 34 35 59 38 55 3 -5 8 -40 12 -77 7 -64 9
-68 29 -63 11 3 24 6 29 6 4 0 7 11 7 25 0 20 7 26 41 35 27 8 57 27 86 58 31
31 59 50 86 57 57 15 60 34 4 28 l-44 -5 -6 41 c-3 23 -11 48 -17 56 -19 22
-59 18 -96 -10 -18 -14 -36 -25 -40 -25 -4 0 -3 33 1 73 4 39 7 92 8 117 0 41
-2 45 -24 45 -31 0 -43 -36 -59 -171 -10 -85 -18 -112 -58 -193 -26 -52 -51
-96 -57 -98 -6 -2 -9 52 -7 152 l4 155 -65 0 c-86 0 -106 -19 -141 -132 -44
-143 -95 -193 -122 -118 -22 61 -17 106 20 178 80 155 97 249 53 290 -27 26
-38 27 -77 7 -18 -9 -39 -36 -57 -72 -26 -53 -28 -68 -31 -198 -4 -127 -6
-144 -29 -187 -41 -75 -67 -74 -90 5 -19 63 -16 83 20 135 84 121 117 273 68
313 -29 23 -48 24 -84 1z m265 -48 c4 -16 3 -54 -2 -84 -10 -55 -58 -168 -72
-169 -22 -2 -2 185 26 254 18 42 36 42 48 -1z m-204 -30 c2 -27 -1 -67 -8 -89
-13 -48 -52 -135 -61 -135 -10 0 -20 78 -14 108 10 45 37 136 47 155 16 31 33
13 36 -39z m402 -192 c0 -23 -64 -157 -80 -167 -22 -14 -6 105 19 148 24 39
61 51 61 19z m364 -18 c10 -27 7 -81 -6 -91 -18 -14 -88 -36 -94 -30 -7 7 34
88 59 115 24 26 33 28 41 6z m-1038 -41 c19 -46 14 -127 -10 -151 -15 -15 -18
-15 -27 -2 -16 23 -1 190 17 190 2 0 11 -17 20 -37z m993 -129 c-34 -35 -53
-42 -65 -23 -8 13 10 32 50 53 45 23 52 8 15 -30z"/>
<path d="M2142 768 c-7 -7 -12 -16 -12 -21 0 -13 -62 -170 -73 -184 -5 -8 -31
-13 -59 -13 -53 0 -118 -22 -118 -41 0 -12 11 -10 87 12 78 24 79 13 3 -208
-10 -31 -14 -57 -9 -65 11 -16 26 2 35 42 3 14 22 71 42 128 34 96 38 103 62
100 20 -2 26 -10 33 -43 14 -72 51 -178 72 -209 15 -23 30 -32 55 -34 30 -3
38 1 54 30 11 18 21 27 24 20 5 -16 29 -15 35 1 3 8 13 72 22 143 21 162 20
157 47 148 33 -10 32 -7 19 -83 -17 -95 -3 -229 27 -263 9 -11 29 -18 48 -18
28 0 39 7 64 42 16 22 30 47 30 55 0 27 23 7 37 -32 16 -45 27 -55 68 -55 35
0 45 6 66 40 20 32 62 161 54 168 -9 9 -22 -10 -35 -52 -35 -109 -70 -158 -91
-125 -16 27 -20 115 -11 247 5 73 11 135 14 137 2 2 39 8 83 12 48 5 80 13 83
21 3 9 -18 12 -82 12 l-86 0 0 30 c0 25 -4 30 -25 30 -19 0 -28 -8 -39 -34
-10 -24 -22 -35 -45 -39 -38 -8 -40 -25 -3 -29 l27 -3 -3 -100 c-2 -55 -11
-127 -19 -160 -16 -59 -65 -145 -83 -145 -17 0 -22 92 -11 217 6 69 10 128 7
130 -4 4 -110 24 -141 26 -17 2 -21 -8 -31 -88 -7 -60 -22 -115 -44 -165 -38
-87 -46 -98 -61 -83 -12 12 -50 223 -42 236 2 4 20 7 39 7 49 0 42 18 -8 22
l-43 3 -6 77 c-13 162 -23 190 -57 156z m-12 -179 c0 -47 -2 -50 -22 -47 -18
2 -22 9 -20 28 2 23 27 70 37 70 3 0 5 -23 5 -51z"/>
<path d="M1866 578 c-7 -34 -3 -44 13 -33 13 7 15 65 2 65 -5 0 -11 -14 -15
-32z"/>
</g>
</svg>
